<?xml version="1.0" standalone="no"?>
<!DOCTYPE svg PUBLIC "-//W3C//DTD SVG 1.0//EN" "http://www.w3.org/TR/2001/REC-SVG-20010904/DTD/svg10.dtd">
<svg xmlns="http://www.w3.org/2000/svg" xmlns:xlink="http://www.w3.org/1999/xlink" id="body_1" width="45" height="34">

<g transform="matrix(0.06640625 0 0 0.06640625 7.624999 -0)">
    <path d="M159.3 5.4C 167.1 -1.9000001 179.2 -1.7999997 187 5.5C 214.6 31.4 240.5 59.3 264.7 89.5C 275.7 75.1 288.2 59.4 301.7 46.6C 309.6 39.199997 321.80002 39.199997 329.7 46.699997C 364.30002 79.7 393.6 123.299995 414.2 164.7C 434.5 205.5 448 247.2 448 276.6C 448 404.2 348.2 512 224 512C 98.4 512 0 404.1 0 276.5C 0 238.1 17.8 191.2 45.4 144.8C 73.3 97.7 112.7 48.6 159.3 5.4zM225.7 416C 251 416 273.4 409 294.5 395C 336.6 365.6 347.9 306.8 322.6 260.6C 319.80002 255 317 249.40001 312.80002 243.8L312.80002 243.8L262.2 302.6C 262.2 302.6 180.80002 199 175.1 192C 133.1 243.8 112 273.2 112 306.8C 112 375.4 162.6 416 225.7 416z" stroke="none" fill="#000000" fill-rule="nonzero" />
</g>
</svg>